<svg width="73" height="56" viewBox="0 0 73 56" fill="none" xmlns="http://www.w3.org/2000/svg">
<path d="M70.873 23.3317H63.6419C62.517 16.7025 59.0453 10.6988 53.8611 6.41678C41.9302 -3.43762 24.2697 -1.75435 14.4153 10.1766C14.3816 10.2147 14.3493 10.2538 14.3183 10.294C13.5309 11.3146 13.72 12.7804 14.7406 13.5678C15.7611 14.3553 17.2269 14.1663 18.0145 13.1456C22.2953 7.95917 28.7748 4.6587 36.0198 4.6587C47.1119 4.66003 56.6724 12.4645 58.8943 23.3317H52.5176C52.2447 23.3318 51.9807 23.4275 51.7711 23.602C51.2758 24.0146 51.2088 24.7504 51.6211 25.2457L60.7989 36.2628C60.8439 36.3168 60.8937 36.3666 60.9478 36.4116C61.4428 36.8245 62.1788 36.7578 62.5915 36.2628L71.7693 25.2457C71.9439 25.0361 72.0396 24.772 72.0397 24.4992C72.0399 23.8547 71.5176 23.332 70.873 23.3317V23.3317Z" fill="white"/>
<path d="M57.2991 42.4321C56.2784 41.6447 54.8127 41.8337 54.0253 42.8544C50.6296 46.9658 45.9291 49.791 40.7051 50.8606C28.0711 53.4473 15.7321 45.3023 13.1453 32.6682H19.5222C20.1667 32.668 20.689 32.1453 20.6889 31.5007C20.6887 31.228 20.593 30.9638 20.4185 30.7542L11.2406 19.7372C10.8279 19.2421 10.0919 19.1755 9.59697 19.5883C9.54288 19.6333 9.49307 19.6831 9.44806 19.7372L0.270248 30.7542C-0.142134 31.2495 -0.0750778 31.9854 0.420218 32.3979C0.629789 32.5725 0.893813 32.6682 1.16671 32.6682H8.39769C9.52277 39.2976 12.9942 45.3012 18.1786 49.5832C30.1095 59.4377 47.7701 57.7543 57.6245 45.8234C57.6581 45.7853 57.6903 45.7461 57.7212 45.706C58.5088 44.6853 58.3197 43.2196 57.2991 42.4321H57.2991V42.4321Z" fill="white"/>
</svg>
